<?xml version="1.0" standalone="no"?>
<!DOCTYPE svg PUBLIC "-//W3C//DTD SVG 20010904//EN"
 "http://www.w3.org/TR/2001/REC-SVG-20010904/DTD/svg10.dtd">
<svg version="1.0" xmlns="http://www.w3.org/2000/svg"
 width="32" height="32" viewBox="0 0 736 736"
 preserveAspectRatio="xMidYMid meet">

<g transform="translate(0.000000,736.000000) scale(0.1,-0.1)"
fill="#000000" stroke="none">
<path d="M4743 4643 c-1602 -1609 -1581 -1588 -1548 -1562 11 9 110 83 220
165 189 140 349 258 1129 834 182 133 346 249 365 257 45 19 112 11 153 -19
35 -25 68 -91 103 -208 102 -339 75 -693 -76 -1019 -118 -253 -345 -496 -594
-635 -338 -188 -744 -226 -1137 -106 -53 17 -101 30 -108 30 -13 0 -551 -247
-563 -259 -4 -4 39 -35 96 -69 775 -468 1720 -364 2376 262 143 137 287 339
387 541 123 250 181 482 191 765 7 209 -3 311 -57 580 -47 237 -60 347 -60
527 0 356 93 619 361 1023 64 96 162 237 218 313 55 75 99 137 97 137 -2 0
-701 -701 -1553 -1557z"/>
<path d="M3645 5643 c-403 -35 -790 -193 -1091 -446 -379 -318 -623 -771 -684
-1269 -16 -129 -8 -443 15 -568 21 -117 54 -233 104 -366 63 -165 75 -225 74
-354 -1 -143 -24 -235 -93 -375 -78 -157 -197 -309 -459 -585 -229 -241 -361
-389 -361 -405 0 -3 71 58 157 137 191 174 573 516 818 733 99 88 225 200 280
250 56 49 160 143 234 208 109 98 130 121 118 130 -36 29 -135 149 -184 225
-432 658 -181 1600 531 1990 234 128 506 192 771 179 139 -7 242 -25 377 -69
l97 -32 158 74 c87 40 212 98 278 128 66 30 123 57 128 61 11 10 -122 94 -248
156 -312 153 -692 227 -1020 198z"/>
</g>
</svg>
